<?xml version="1.0" encoding="utf-8"?>
<!DOCTYPE svg PUBLIC "-//W3C//DTD SVG 1.1//EN" "http://www.w3.org/Graphics/SVG/1.1/DTD/svg11.dtd">
<svg version="1.1" id="Layer_1" xmlns="http://www.w3.org/2000/svg" xmlns:xlink="http://www.w3.org/1999/xlink" x="0px" y="0px" viewBox="0 0 512 512" enable-background="new 0 0 512 512" xml:space="preserve">
<g>
<path d="M43.6,200.3v113.1h50.8L208,397.6V116L94.4,200.3H43.6z M267.7,153.3c-6.7-6.7-17.5-6.7-24.2,0
		c-6.7,6.7-6.7,17.5,0,24.2h0c21.9,22,32.9,50.6,32.9,79.3c0,28.8-10.9,57.5-32.9,79.5c-6.7,6.7-6.7,17.5,0,24.2
		c3.3,3.3,7.7,5,12.1,5c4.4,0,8.7-1.7,12.1-5c28.6-28.6,42.9-66.2,42.9-103.6C310.6,219.3,296.3,181.8,267.7,153.3 M321.7,99.2
		c-6.7-6.7-17.5-6.7-24.2,0c-6.7,6.7-6.7,17.5,0,24.2l0,0c36.8,36.9,55.3,85,55.3,133.2c0,48.5-18.3,96.8-55.3,133.8
		c-6.7,6.7-6.7,17.5,0,24.2c3.3,3.3,7.7,5,12.1,5c4.4,0,8.7-1.7,12.1-5c43.6-43.6,65.3-100.9,65.3-157.9
		C387,199.6,365.1,142.6,321.7,99.2 M378.4,44.1c-6.7-6.7-17.5-6.7-24.2,0c-6.7,6.7-6.7,17.5,0,24.2c52,52.1,78.1,120.1,78.1,188.3
		c0,68.4-26,136.7-78.1,188.9c-6.7,6.7-6.7,17.5,0,24.2c3.3,3.3,7.7,5,12.1,5c4.4,0,8.7-1.7,12.1-5c58.8-58.8,88.1-136,88.1-213
		C466.5,179.7,437,102.7,378.4,44.1"/>
</g>
</svg>
