<?xml version="1.0" encoding="utf-8"?>
<!DOCTYPE svg PUBLIC "-//W3C//DTD SVG 1.1//EN" "http://www.w3.org/Graphics/SVG/1.1/DTD/svg11.dtd">
<svg version="1.1" id="Layer_1" xmlns="http://www.w3.org/2000/svg" xmlns:xlink="http://www.w3.org/1999/xlink" x="0px" y="0px" viewBox="0 0 512 512" enable-background="new 0 0 512 512" xml:space="preserve">
<g>
	<path fill="#fff" d="M469.9,279.7v-48.9l-6.9-2.3l-52.3-17.1l-14-33.7l26.9-56.8L389,86.3l-6.5,3.3l-49.1,24.9
		l-33.7-14l-21.2-59.2h-48.9l-2.3,6.9l-17.1,52.4l-33.7,14l-56.8-26.8l-34.6,34.6l3.3,6.5l24.9,49.1l-14,33.7l-59.2,21.2v48.9
		l6.9,2.3l52.4,17.1l14,33.7l-26.8,56.8l34.6,34.6l6.5-3.3l49.1-24.9l33.7,14l21.2,59.2h48.9l2.3-6.9l17.1-52.3l33.7-14l56.8,26.9
		l34.6-34.6l-3.3-6.5l-24.9-49.1l14-33.7L469.9,279.7z M255.1,324.8c-37.8,0-68.5-30.7-68.5-68.5c0-37.8,30.7-68.5,68.5-68.5
		s68.5,30.7,68.5,68.5C323.5,294.1,292.9,324.8,255.1,324.8"/>
</g>
</svg>
