<?xml version="1.0" encoding="utf-8"?>
<!DOCTYPE svg PUBLIC "-//W3C//DTD SVG 1.1//EN" "http://www.w3.org/Graphics/SVG/1.1/DTD/svg11.dtd">
<svg version="1.1" id="Layer_1" xmlns="http://www.w3.org/2000/svg" xmlns:xlink="http://www.w3.org/1999/xlink" x="0px" y="0px" viewBox="0 0 512 512" enable-background="new 0 0 512 512" xml:space="preserve">
<g>
	<path fill="#000" d="M404.8,246.6h-22.1l0-73.6c0-36.7-13.9-70.3-36.9-94.9c-22.9-24.6-55.5-40.4-91.5-40.3
		c-36,0-68.6,15.8-91.6,40.3c-23,24.6-36.9,58.2-36.9,94.9v73.6h-22.1c-9.2,0-16.6,7.4-16.6,16.6v194.5c0,9.2,7.4,16.6,16.6,16.6
		h301.1c9.2,0,16.6-7.4,16.6-16.6V263.2C421.4,254,414,246.6,404.8,246.6 M186.8,173c0-21.2,8-39.9,20.5-53.2
		c12.6-13.3,28.9-21,47-21c18.1,0,34.4,7.7,47,21c12.5,13.3,20.5,32.1,20.5,53.2v73.6H186.8V173z"/>
</g>
</svg>
