<?xml version="1.0" encoding="utf-8"?>
<!DOCTYPE svg PUBLIC "-//W3C//DTD SVG 1.0//EN" "http://www.w3.org/TR/2001/REC-SVG-20010904/DTD/svg10.dtd">
<svg version="1.1" id="Layer_1" xmlns="http://www.w3.org/2000/svg" xmlns:xlink="http://www.w3.org/1999/xlink" x="0px" y="0px" viewBox="0 0 512 512" enable-background="new 0 0 512 512" xml:space="preserve">
<g>
	<path d="M255.6,38.5c-120,0-217.4,97.3-217.4,217.4c0,120.1,97.4,217.4,217.4,217.4 C375.7,473.4,473,376,473,255.9C473,135.9,375.7,38.5,255.6,38.5 M240.3,159.8c-21.5-1.3-41.9-5.5-60.6-12 c15-30.6,36.1-55.5,60.6-71.7V159.8z M240.3,190.5v50.1h-84.6c1.3-22.8,5.7-44.4,12.3-64.4C190.4,184.2,214.7,189.1,240.3,190.5  M240.3,271.3v49.6c-25.7,1.5-50.1,6.4-72.6,14.4c-6.5-19.9-10.7-41.4-12-64H240.3z M240.3,351.6v84.9 c-24.8-16.4-46-41.6-61.1-72.7C198,357.2,218.6,353,240.3,351.6 M270.9,351.6c21.7,1.4,42.3,5.6,61.1,12.2 c-15.1,31-36.4,56.3-61.1,72.7V351.6z M270.9,320.9v-49.6h84.6c-1.2,22.6-5.4,44.2-12,64C321.1,327.3,296.6,322.3,270.9,320.9  M270.9,240.6v-50.1c25.5-1.4,49.9-6.3,72.3-14.3c6.6,19.9,10.9,41.6,12.3,64.4H270.9z M270.9,159.8V76.1 c24.5,16.2,45.6,41.1,60.6,71.7C312.8,154.3,292.4,158.5,270.9,159.8 M324.2,82.3c22.3,8.9,42.6,21.9,59.7,38.2 c-7.5,5.5-15.6,10.6-24.2,15.2C350.1,115.8,338.2,97.8,324.2,82.3 M151.4,135.7c-8.6-4.5-16.7-9.6-24.2-15.2 c17.2-16.3,37.4-29.3,59.7-38.2C173,97.8,161.1,115.8,151.4,135.7 M139.8,164.1c-8.2,23.8-13.2,49.6-14.7,76.6H69.5 c2.9-36.3,16.3-69.8,37.2-97.3C116.9,151.1,127.9,158.1,139.8,164.1 M125,271.3c1.4,26.8,6.4,52.5,14.4,76.2 c-11.8,6-22.8,13-33,20.8c-20.7-27.5-34-60.8-37-97H125z M151,376c9.5,19.8,21.3,37.8,35,53.3c-22.1-8.9-42.1-21.9-59.1-38.1 C134.4,385.6,142.4,380.5,151,376 M360.2,376c8.6,4.5,16.6,9.6,24,15.2c-16.9,16.2-37,29.2-59.1,38.1 C338.9,413.8,350.7,395.8,360.2,376 M371.8,347.5c8-23.7,13-49.3,14.4-76.2h55.5c-2.9,36.2-16.2,69.5-37,97 C394.6,360.5,383.5,353.5,371.8,347.5 M386.1,240.6c-1.4-27-6.5-52.8-14.6-76.6c11.8-6,22.9-13,33-20.7 c20.9,27.5,34.2,60.9,37.2,97.3H386.1z"/>
</g>
</svg>