<?xml version="1.0" encoding="utf-8"?>
<!DOCTYPE svg PUBLIC "-//W3C//DTD SVG 1.1//EN" "http://www.w3.org/Graphics/SVG/1.1/DTD/svg11.dtd">
<svg version="1.1" id="Layer_1" xmlns="http://www.w3.org/2000/svg" xmlns:xlink="http://www.w3.org/1999/xlink" x="0px" y="0px" viewBox="0 0 512 512" enable-background="new 0 0 512 512" xml:space="preserve">
<g>
<path fill="#fff" d="M392.4,243.2l-13.3-13.3l-71.2-71.2l20.9-20.9c11.2-11.2,16.8-26,16.8-40.6 c0-14.7-5.6-29.4-16.8-40.6c-11.2-11.2-26-16.8-40.6-16.8c-14.7,0-29.4,5.6-40.6,16.8L122.5,182.3c-1.8,1.4-3.5,2.9-5.2,4.6 c-11.2,11.2-16.8,26-16.8,40.6c0,14.6,5.6,29.4,16.8,40.6l84.5,84.5l-20.9,20.9c-11.2,11.2-16.8,26-16.8,40.6 c0,14.7,5.6,29.4,16.8,40.6c11.2,11.2,25.9,16.8,40.6,16.8h0.1c14.6,0,29.4-5.6,40.6-16.8l0,0l130.2-130.2 c11.2-11.2,16.8-26,16.8-40.6C409.2,269.2,403.6,254.4,392.4,243.2 M267.3,76.4c5.8-5.8,13.3-8.6,20.9-8.6c7.6,0,15.1,2.8,20.9,8.6 c5.8,5.8,8.6,13.3,8.6,20.9c0,7.6-2.9,15.1-8.6,20.9l-8.3,8.3l-87.2,87.2c-2.4-9.8-7.5-19-15.1-26.6c-7.5-7.5-16.6-12.5-26.3-15 L267.3,76.4z M242.4,435c-5.8,5.8-13.3,8.6-20.9,8.7c-7.6,0-15-2.9-20.8-8.7c-5.8-5.8-8.6-13.3-8.7-20.9c0-7.6,2.9-15.1,8.6-20.9 l20.9-20.9l7.6,7.6l13.3,13.3c5.8,5.8,8.6,13.3,8.6,20.9C251,421.7,248.2,429.2,242.4,435 M372.7,304.7l-95.5,95.5 c-2.4-9.8-7.4-19.1-15-26.7l-13.3-13.3L137,248.4c-5.8-5.8-8.6-13.3-8.6-20.9c0-7.6,2.9-15.1,8.6-20.9c5.8-5.8,13.3-8.6,20.9-8.7 c7.6,0,15.1,2.9,20.9,8.6c5.8,5.8,8.6,13.3,8.7,20.9c0,7.6-2.9,15.1-8.7,20.9l19.7,19.7l89.6-89.6l71.2,71.2l13.3,13.3 c5.8,5.8,8.6,13.3,8.6,20.9C381.3,291.4,378.5,298.9,372.7,304.7 M281.5,203.1l-74.5,74.5l19.7,19.7l74.5-74.4L281.5,203.1z M311.3,232.9l-74.5,74.5l19.7,19.7l74.5-74.5L311.3,232.9z M266.6,337.1l19.7,19.7l74.5-74.5l-19.7-19.7L266.6,337.1z"/>
</g>
</svg>