<?xml version="1.0" encoding="utf-8"?>
<!DOCTYPE svg PUBLIC "-//W3C//DTD SVG 1.1//EN" "http://www.w3.org/Graphics/SVG/1.1/DTD/svg11.dtd">
<svg version="1.1" id="Layer_1" xmlns="http://www.w3.org/2000/svg" xmlns:xlink="http://www.w3.org/1999/xlink" x="0px" y="0px" viewBox="0 0 512 512" enable-background="new 0 0 512 512" xml:space="preserve">
<g>
	<path fill="#000" d="M470.7,407.9l-2.7-2.7l0,0L360.5,297.7c14.9-25.7,23.6-55.6,23.8-87.5
		c0.6-97.6-78-177.2-175.6-177.9c-0.4,0-0.8,0-1.2,0c-97.1,0-176.1,78.4-176.7,175.6c-0.6,97.6,78,177.2,175.6,177.9
		c0.4,0,0.8,0,1.2,0c32.4,0,62.8-8.8,89-24.1L404,469.2l0,0l2.7,2.7c8.1,8.1,21.3,8.1,29.4,0l34.6-34.6
		C478.8,429.2,478.8,416,470.7,407.9 M206.7,340.8c-72.6-0.5-131.3-59.9-130.8-132.5c0.5-72.1,59.5-130.8,131.6-130.8l0.9,0
		c35.2,0.2,68.1,14.1,92.9,39.1c24.7,25,38.2,58.2,38,93.4c-0.2,35-14,67.9-38.9,92.6c-24.8,24.7-57.8,38.3-92.8,38.3L206.7,340.8z"
		/>
</g>
</svg>
