<?xml version="1.0" encoding="utf-8"?>
<!-- Generator: Adobe Illustrator 16.0.1, SVG Export Plug-In . SVG Version: 6.00 Build 0)  -->
<!DOCTYPE svg PUBLIC "-//W3C//DTD SVG 1.1//EN" "http://www.w3.org/Graphics/SVG/1.1/DTD/svg11.dtd">
<svg version="1.1" id="Layer_1" xmlns="http://www.w3.org/2000/svg" xmlns:xlink="http://www.w3.org/1999/xlink" x="0px" y="0px"
	 width="512px" height="512px" viewBox="0 0 512 512" enable-background="new 0 0 512 512" xml:space="preserve">
<g>
	<path fill="#3F3F3F" d="M64.085,213.521h1.105l1.737,0.158h0.474h0.947l3.159,0.316h0.474l5.053,0.316l3.949,0.157h0.158
		l1.105,0.158h1.422l4.105,0.316h1.421h0.159h0.473h0.158l0.316,0.159h1.265l4.736,0.316h2.053l0.948,0.158h1.262l3.949,0.158
		l3.317,0.158l6,0.316h0.475h0.633l8.052,0.474h1.263l3.159,0.158l3.791,0.157h0.632h0.157h0.159l3.474,0.159l8.211,0.315h1.422
		h0.157h0.157h1.422l2.528,0.158h1.263h0.157h0.633l0.158-3.001v-1.263v-0.79l0.315-6.634l0.158-6.476v-0.631v-0.79v-0.948
		l0.158-0.474v-0.79v-0.791v-1.263v-0.316v-0.157v-0.474v-0.158l0.158-0.474v-0.474v-0.947v-0.316v-0.158v-0.632v-0.947v-0.79
		l0.157-0.316v-0.315v-0.316v-0.79v-2.054v-0.158l0.158-1.263v-0.474v-0.475V181.3v-0.158v-0.79l0.157-0.79v-0.158v-1.105v-0.632
		l0.158-2.686l0.159-1.263v-0.158v-1.896l0.159-0.474v-2.054l0.314-6.476l0.158-2.053v-0.474v-0.315v-0.158l0.158-0.632v-0.947
		v-1.264v-0.315l0.158-2.685l0.159-0.948v-1.737v-0.158l0.159-1.421v-1.105V147.5v-0.474l0.158-0.632v-0.158v-0.158v-0.158v-0.475
		v-0.631v-0.316v-0.158v-0.158v-0.474l0.158-5.054l0.157-1.263v-0.474v-0.316v-1.737v-0.474v-0.158v-0.158v-0.158v-0.158V133.6
		v-0.158v-0.316l0.157-0.158v-1.422v-0.157v-1.105v-0.632l0.159-2.37v-1.421v-1.105v-0.158l0.157-0.632v-1.105v-1.58l0.159-1.58
		v-1.895v-1.738l0.157-2.054v-2.685l0.158-2.685v-0.632v-0.316v-0.316v-0.474l0.157-0.79v-0.158v-0.948v-1.105v-0.316l0.158-5.054
		l0.316-8.055v-0.948l0.159-3.159l0.157-1.737l-0.157-0.158l0.157-0.631v-0.474v-0.474l0.158-4.423l0.157-3.159l0.158-6.16v-2.211
		l0.158-0.948v-2.369l0.159-4.106l1.104,0.158h2.842l1.738,0.159h1.421l2.686,0.158h1.578L177,60.155h0.316l3.001,0.157h0.157h2.369
		h0.474l0.474,0.159l0.157-0.159l2.527,0.159h2.842h0.158h0.157l0.159,0.158h2.527h0.315h0.791h0.157h0.158h0.157h0.79l0.948,0.157
		h0.315h0.79h0.474h0.159h0.788h0.79l5.212,0.159h0.631h1.422h1.42l5.845,0.157h0.947h0.159h2.053h0.63h0.475h0.473h0.948
		l0.79,0.158h0.157h0.791h0.473h0.158h1.105h1.105h0.475h0.63h0.791h0.316h1.579h0.315h0.158h0.79h0.474v0.158V61.26l0.316,0.158
		h0.948h1.263h0.315h0.316h0.158h1.105h0.631h0.633h0.158h0.473h1.58h2.053h2.684h2.369h0.158v2.843l-0.158,5.686V72v1.421v1.105
		v2.686v6.16l-0.159,4.738v4.264v0.158v3.474v3.475v4.265v0.158l-0.158,0.947v2.37v0.631v5.37v6.317v1.422l-0.158,2.369v1.264v4.896
		v0.316h0.158h0.316h0.316l0.315-0.158l0.157-0.158v-0.158l0.159-0.158h0.157l0.475,0.158h0.157l0.158,0.158l0.157,0.158
		l0.475,0.315l0.158,0.158l0.157,0.158l0.316,0.315v0.158l0.158,0.158v0.158h0.158l0.315,0.473l0.315,0.159l0.316,0.315h0.158
		l0.315,0.475h-0.157l0.157,0.316l0.633,0.79l0.315,0.315h0.157l0.158,0.158l0.157,0.158v0.158l0.317,0.315l0.473,0.316h0.158
		l0.159,0.157l0.316,0.159v0.157l0.157,0.159h-0.157l0.157,0.158l0.158,0.158l0.315,0.158l0.475,0.157h0.158l0.157,0.159h0.157
		h0.159h0.157l0.159-0.159l0.473,0.159h0.157h0.791v-0.159l0.315-0.157v-0.158l0.159-0.158l-0.159-0.158l0.159-0.316v-0.316
		l0.158-0.158h0.159h0.314v0.158h0.158l0.158,0.157h0.631h0.158l0.158-0.157h0.158l0.316,0.157l0.158,0.159l0.157,0.316h0.157h0.158
		h0.157l0.316,0.158l0.316,0.158l0.157,0.315l0.158,0.159h0.315l0.316-0.159l0.315,0.316l0.158-0.158h0.156v-0.159v-0.157l0.16-0.79
		v-0.316h-0.16v-0.158v-0.158v-0.315l0.16-0.316l0.315-0.474l0.157-0.158h0.158l0.316,0.158l0.159,0.158v0.158v0.158l0.157,0.158
		l0.157,0.316h0.158h0.157v0.157l0.157,0.158v0.158h0.16v0.157v0.159h0.156l0.316-0.159l0.157-0.157h0.157h0.159l0.789,0.316v0.157
		l0.157,0.316v0.158h-0.157h-0.315v0.158v0.157l0.473,0.316l0.158-0.158l0.318,0.158v0.159l0.156,0.157v0.158v0.159v0.315
		l0.158,0.159h0.158h0.156h0.159v0.158h0.158v0.316l-0.158,0.473v0.159v0.631l0.158,0.159v0.157h0.159h0.156v0.316v0.473v0.474
		v0.158l0.158,0.315v0.159v0.158v0.158v0.158h0.157l0.79,0.158l0.474-0.158l0.158-0.158h0.159h0.156v0.158h-0.156v0.158v0.158h0.156
		l0.158,0.158l0.315-0.158h0.316l0.157-0.158h0.316h0.157h0.317l0.156,0.158l0.159,0.158l0.158,0.159h0.156l0.158-0.159v-0.158
		h0.159h0.632h0.158l0.156-0.158v-0.158v-0.158l0.315-0.158h0.158l0.159,0.158v0.316l0.158,0.158l0.157,0.158h0.157v-0.158v-0.158
		l0.158-0.158h0.158l0.157,0.158l0.159,0.158l0.473,0.474l0.159,0.159v0.158h0.157l0.158,0.157l0.474,0.159l0.474,0.157l0.159,0.159
		v0.157v0.158l0.157,0.158h0.157h0.158v-0.316h0.475h0.314h0.473l0.16,0.158h0.157l0.315,0.474h0.316l0.158,0.158h0.157h0.159v0.158
		h0.158v0.158v0.158h0.156h0.158h0.157v-0.158h0.159v-0.158l0.157-0.158h0.474l0.315,0.158h0.316h0.159l0.157-0.158l0.157-0.158
		l0.157-0.158l0.476-0.474l0.157-0.157h0.158l0.314,0.157h0.159l0.158,0.158h0.158h0.157h0.158v-0.158h0.158l0.789,0.316
		l0.158,0.158l0.314,0.474v0.158l0.317,0.315l0.315,0.475l0.158,0.158l0.157,0.158l0.633,0.79l0.473,0.316l0.157,0.158l0.316-0.158
		l0.316-0.159l0.315-0.157h0.156v-0.159v-0.157h0.159l0.159-0.159h0.158l0.156,0.159h0.158l0.158-0.159l0.316-0.474h0.158v-0.158
		v-0.632h-0.158l0.158-0.158l0.314-0.632l0.158-0.158l0.317-0.158h0.157v-0.158l0.631,0.158h0.157h0.159v0.158h0.158h0.157v0.158
		h0.158l0.158,0.158l0.316,0.158l0.158,0.158h0.473h0.316h0.157h0.158h0.315h0.158l0.474,0.158l0.158,0.158l0.474,0.157h0.314
		l0.633,0.158l0.316-0.315h0.156l0.318-0.474l0.158-0.158v-0.158l0.156-0.158l0.315-0.158h0.159h0.158h0.158l0.157,0.158
		l0.157,0.474l0.158,0.158v0.316l-0.158,0.157v0.158v0.158l-0.157,0.158v0.158h-0.157l-0.158,0.158v0.158l-0.158,0.158h-0.159v0.159
		v0.316l0.159,0.157v0.159l0.474,0.474l0.157,0.157v0.158h-0.157v0.158h-0.157v0.158v0.158l0.473,0.79h0.157l0.79,0.315h0.157h0.317
		h0.474h0.158h0.473l0.157-0.158h0.317l0.158-0.158h0.157v-0.158h0.157v0.158l0.159,0.158v0.158h0.157v0.159h0.158h0.158h0.157
		l-0.157,0.631l-0.158,0.159v0.315l-0.158,0.158l-0.157,0.158l-0.159,0.158v0.158v0.158h0.159h0.157h0.158l0.158,0.157l-0.158,0.316
		v0.316l-0.158,0.158h-0.157v0.158h-0.159v-0.158l-0.157-0.158v0.158l-0.157,0.158v0.159v0.157l0.157,0.158l0.157,0.158l0.159,0.158
		l0.315,0.159h0.158h0.157l0.157-0.159v0.159h0.158l0.475,0.316l0.315,0.158l0.314,0.158l0.633,0.316h0.158h0.157h0.317l0.631-0.316
		l0.789-0.631v-0.159l0.158-0.158l0.474-0.158l0.158-0.158v-0.157v-0.159l-0.158-0.315l0.317-0.158l0.156,0.158h0.158v-0.158v-0.158
		v-0.158v-0.158v-0.157l0.317-0.158h0.156h0.158h0.159v0.158v-0.158l0.314-0.158h0.159v-0.158l0.157-0.158l0.157-0.158l0.159-0.315
		l0.157-0.474l0.158-0.159l0.158-0.157l0.315-0.159h0.157h0.159h0.157v0.159l0.79,0.157l0.63,0.474l0.633,0.474v0.158v0.79
		l-0.156,0.158v0.158v0.158v0.158l0.156,0.158v0.158h0.158h0.158l0.474,0.159h0.159h0.156l0.315-0.159l0.157-0.158h0.159
		l0.158-0.158l0.158-0.158l0.473-0.158h0.158h0.156h0.161l0.157,0.158h0.157l0.474,0.316v0.158l0.158,0.159l0.158,0.157v0.632v0.157
		l-0.158,0.316v0.158h-0.158v0.158v0.316v0.316l0.316,0.157l0.158,0.158l0.473,0.158h0.475h0.314h0.476h0.315l0.158-0.158h0.158
		l0.156-0.315l0.317-0.475l0.157-0.474l0.157-0.316v-0.157l0.159-0.159h0.157v0.159v0.157h0.157h0.159l0.159-0.157v-0.159v-0.158
		h0.156h0.158l0.158,0.158l0.157,0.159v0.157h0.157h0.159v0.159h0.159h0.472v-0.159l0.158-0.316l0.157-0.79v-0.158v-0.158h0.158
		l0.317-0.316h0.157h0.315h0.158l0.156,0.158l0.159,0.158l0.315,0.158l0.158,0.158v0.159l0.314,1.105l0.159,0.474v0.158
		l-0.159,0.316h-0.314v0.159h-0.158h-0.156h-0.159l-0.159,0.315v0.315v0.158v0.158v0.158l0.318,0.474v0.158l0.156,0.316l0.158,0.473
		l0.314,0.632l0.159,0.158l0.158,0.158l0.159,0.158h0.156v0.158h0.316l0.475,0.158h0.158l0.156-0.158h0.158l0.157-0.158l0.159-0.158
		h0.157v-0.158v-0.158l0.159-0.158v-0.316v-0.316v-0.158v-0.316l-0.316-0.474v-0.158v-0.158v-0.158h0.157v-0.158v-0.158l0.316-0.157
		h0.315h0.157l0.159-0.158v-0.158v-0.157v-0.159v-0.158v-0.158h0.158h0.158l0.157,0.158l0.473-0.316l0.16-0.158l0.314-0.315
		l0.158-0.475h0.158v-0.158l0.315-0.316v-0.157v-0.159v-0.315v-0.158l-0.159-0.316l-0.156-0.474v-0.158v-0.158v-0.158v-0.158
		l0.156-0.158l0.159-0.158h0.157v0.158v0.158v0.158v0.158h0.157v0.158l0.632-0.316l0.158-0.158l0.318-0.315h0.156l0.158-0.159h0.157
		l0.157,0.159h0.159v0.158l0.159,0.158v0.158l0.157,0.316v0.474v0.158v0.158v0.316l0.157,0.158l0.158,0.631l0.157,0.316l0.316,0.316
		v0.159l0.159,0.158l0.314,0.158h0.157h0.158l0.158-0.158v-0.474v-0.159h0.157v-0.158h0.159h0.473l0.474,0.158h0.158l0.159,0.159
		h0.156v0.157l0.158,0.316v0.316l0.159,0.474h0.158v0.159h0.157h0.157l0.315-0.159h0.158l0.633-0.158h0.158h0.157v-0.158h0.157
		v-0.158l0.159-0.158v-0.158h0.157v-0.158v-0.159l0.157-0.157v-0.316v-0.158v-0.315l0.159-0.316v-0.158v-0.158l0.157-0.158v-0.158
		v-0.158h0.158h0.157l0.157,0.158h0.159l0.159,0.158l0.473,0.316v0.158h0.474h0.159l0.473-0.158h0.156v0.158v0.158v0.159
		l-0.156,0.157l-0.158,0.158h-0.158l-0.315,0.158l-0.317,0.474l-0.156,0.159v0.158v0.158h0.156h0.158v0.158l0.475,0.158h0.158h0.158
		v0.158h0.156l0.477,0.316h0.156h0.473h0.318v-0.159h0.156h0.158l0.158,0.159l0.158,0.315v0.158v0.157h0.157v0.158v0.316v0.158
		l0.316,0.315h0.159h0.314h0.79l0.157-0.158l0.158-0.158h0.157h0.158l0.317,0.158h0.157v0.158h0.158v0.158l0.156,0.316v0.157
		l0.158,0.158l0.158,0.158l0.475,0.474h0.158v0.158l0.314,0.316l0.159,0.158v0.474v0.158h0.156v0.158l0.159,0.158h0.158h0.158
		l0.156-0.158l0.475-0.158l0.158-0.158v-0.158l0.158-0.316l0.157-0.158v-0.158v-0.158v-0.315v-0.316v-0.158v-0.158h0.157v-0.157
		v-0.159l0.159-0.158l0.474-0.158h0.158l0.631,0.316l0.316,0.159l0.315,0.315h0.314l0.633-0.158v-0.157h0.316l0.315-0.159v-0.158
		l0.159-0.158v-0.158v-0.158l0.156-0.474v-0.158l-0.156-0.157h-0.159v-0.158h-0.158v-0.315h0.158l0.315-0.159h0.317l0.156-0.158
		l-0.156-0.316v-0.158l0.156-0.158h0.158h0.317h0.156h0.158l0.315,0.158l0.159,0.158h0.158v-0.158v-0.158v-0.158h-0.158v-0.159
		h0.158h0.315l0.631,0.159l0.316,0.158h0.158h0.157l0.157-0.158l0.159-0.316l0.158-0.159v0.159h0.158v0.157v0.159l0.472-0.159
		l0.159-0.157v-0.159h0.158l-0.158-0.316h0.158v-0.158h0.156l0.159,0.158l0.158,0.158h0.158h0.632h0.157v-0.158h0.158l0.158-0.315
		v-0.159v-0.158v-0.158v-0.158l0.315,0.158l0.158,0.158l0.315,0.158l0.473,0.159l0.159,0.157l0.159,0.158l0.63,0.316l0.316,0.159
		l0.159,0.316h0.157h0.157h0.157h0.158v-0.159h0.158v-0.157v-0.159h-0.158v-0.158v-0.158l0.475-0.158h0.158l0.314,0.158l0.474,0.475
		l0.317-0.159h0.158l0.156-0.158v-0.158l-0.156-0.315l-0.158-0.159v-0.158v-0.158v-0.158l0.158-0.158v-0.158l0.315-0.158h0.158
		l0.315,0.158h0.158l0.158,0.158l0.156,0.158h0.475l0.316-0.316l0.314-0.158l0.158-0.315l0.158-0.158h0.158l0.316,0.158l0.314-0.158
		l0.79-0.474l0.158-0.158l0.157-0.316h0.316h0.474h0.158h0.158v0.159h0.157l0.159,0.474v0.316v0.158v0.315v0.158l0.158,0.158v0.158
		h0.156h0.158l0.158-0.158h0.157l0.159-0.158l0.158-0.158h0.158v0.158v0.316h0.156v0.158h0.316l0.316-0.158h0.158l0.158-0.316h0.156
		l0.158,0.158v0.158l-0.158,0.158h0.158l0.316,0.158h0.947h0.157h0.158h0.948h0.632l0.315-0.158h0.158v-0.316v-0.316h0.315
		l0.473,0.158l0.477,0.158l0.156,0.158l0.158-0.158v-0.158v-0.158v-0.157v-0.158v-0.158h0.157v-0.158h0.157l0.159,0.158h0.159
		l0.156-0.158l0.158-0.316v-0.158l-0.158-0.316v-0.157v-0.158l0.631-0.948h0.159h0.157h0.159l0.946,0.316l0.316,0.158l0.157,0.159
		l0.158,0.157h0.158h0.157h0.476h0.156h0.158v0.159v0.158v0.157v0.159h0.157l0.317,0.158h0.158l0.157,0.158l0.157,0.158v0.158v0.158
		h0.317l0.157-0.158h0.158v-0.158l0.158,0.158l0.157,0.158v0.316l0.314,0.631l0.159,0.158h0.158h0.158h0.157h0.158h0.157
		l0.316-0.158l0.159,0.158l0.157,0.158l0.157,0.158h0.158h0.156l0.159-0.315l0.159-0.158v0.158l0.157,0.315v0.474h0.315l0.158,0.316
		v0.159v0.157l0.158,0.159l0.158,0.158h0.157l0.159-0.158h0.156l0.158,0.158v0.158v0.158v0.158v0.158v0.158l0.158,0.159l0.159,0.157
		h0.156l0.317,0.158l0.156,0.158v0.157l0.158-0.157h0.158v0.157v0.158v0.158l0.157,0.158l0.158,0.158h0.317l0.156,0.158h0.315h0.316
		v-0.158h0.159v-0.158v-0.158h0.157h0.157h0.158l0.316,0.158h0.157l0.316-0.158l0.158-0.158h0.156l0.158,0.158v0.158l-0.158,0.158
		l0.158,0.158v0.158l0.159,0.158l0.158-0.158l0.157,0.158h0.158l0.158,0.158v0.159v0.157v0.158v0.158l0.156,0.158h0.159l0.158-0.158
		v-0.158h0.156h0.159l0.158,0.316l-0.158,0.159l0.158,0.157v0.158h0.474h0.156l0.79-0.315h0.158l0.158,0.157v0.158v0.158v0.158
		l0.159,0.158h0.315v-0.158h0.157v-0.158l0.157-0.158l0.159,0.158h0.157v0.158h0.159h0.157h0.157l0.158-0.158h0.158h0.157
		l0.159,0.158l0.158,0.158v0.158v0.158v0.158h0.157l0.157-0.158l0.158,0.158v0.158l0.159,0.158l-0.159,0.158l0.159,0.157h0.156
		l0.159-0.157h0.157l0.157,0.157v0.158v0.158v0.157l0.158,0.159l0.475-0.159l0.316-0.157h0.157l0.157-0.158v-0.315h0.158h0.316
		h0.158v-0.158l0.158-0.158l0.314,0.158v0.158l-0.314,0.157h-0.158v0.316h0.158h0.157v0.157v0.159l-0.315,0.158l-0.158,0.158v0.158
		l0.316,0.158l0.157,0.158h0.157h0.159l0.157-0.158l0.157,0.158h0.159v0.158l0.473,0.631h0.158h0.157l0.159-0.158l0.315-0.315
		v-0.158l0.158,0.158v0.158v0.158v0.158h-0.158h-0.157l-0.158,0.158v0.158v0.158l0.158,0.158v0.157h0.157h0.158h0.158h0.156h0.159
		h0.159h0.156l0.158-0.157v-0.158l-0.158-0.316l0.158-0.158h0.158v-0.158v0.158h0.156l0.159,0.158v0.158v0.158h0.158h0.159v0.158
		l0.314-0.158l0.158-0.158v-0.158v-0.316l0.156-0.158v-0.158l0.159-0.158h0.158h0.159v0.158v0.158l-0.159,0.158l-0.158,0.158
		l0.158,0.158h0.315h0.158v-0.158l0.157-0.316l0.158-0.158l0.158-0.158l0.159-0.158l0.157-0.158h0.157l0.158,0.158v0.158
		l-0.158,0.158h-0.157l-0.157,0.315v0.158v0.158l0.473,0.158h0.157h0.158l0.159-0.158l0.156-0.158v-0.158h0.159h0.157v0.158v0.158
		h0.157h0.158v-0.158v-0.316l-0.158-0.158h-0.157h-0.157h-0.159h-0.156v-0.158l0.156-0.158h0.159l0.157,0.158v-0.158h0.157
		l0.158-0.158l0.159-0.158v-0.158l0.157,0.158h0.158h0.316l0.156,0.158l-0.156,0.158l0.156,0.158h0.158l0.159-0.158h0.156v0.158
		l-0.156,0.158l-0.159,0.158h0.159v0.158h0.156l0.159-0.315h0.158v0.158v0.316v0.158l0.158,0.158l0.156-0.158v-0.316v-0.158h0.317
		l0.157-0.158h0.158l0.158-0.158h0.158h0.156h0.317h0.159v0.158h0.156h0.158v0.315h-0.158h-0.156h-0.159v0.158v0.158h0.159h0.156
		h0.158h0.157h0.157h0.159v0.316v1.58v0.157v0.159l0.157,0.632v0.316v0.157v0.158v0.158v0.316v0.158v0.158v0.316v0.315v0.158v0.316
		v0.316v0.158v0.159l0.159,0.315v0.474v0.158v0.158v0.158v0.158v0.315v2.053l0.157,0.316v0.474v0.316v0.947v0.316v0.157l0.158,1.422
		v0.474v0.316v0.158v0.474v0.948v0.474l0.157,2.053v0.474v1.422v0.316l0.157,0.632v0.947v0.474v0.158v0.474v0.316l0.159,1.421v1.105
		v0.474v0.158v0.158v0.316v0.316l0.157,2.053v0.158v0.948v0.474v0.316v0.158l0.158,0.632v0.157v0.316v0.158v0.158v1.264v0.158
		l0.158,1.58v0.316v0.474v0.158v0.158v0.157v0.159v0.158v0.316v0.79v0.159l0.157,1.105v0.316v0.632v0.315v0.632l0.158,1.264v1.105
		v0.316v1.58v0.316l0.159,0.79v0.315v0.632v0.316v0.79v0.316v0.315l0.156,1.738v0.474v1.737l0.158,0.158v0.158v0.157l0.315-0.157
		l0.316,0.157l0.159,0.159l0.157,0.158v0.158l0.157,0.158v0.158l0.159,0.315l0.156,0.159l0.476,0.79l0.156,0.157l0.158,0.159
		l0.474,0.315l0.315,0.158h0.158l0.159,0.158v0.158l0.158,0.158l0.157,0.158l0.157-0.158h0.315h0.159v0.158v0.316l0.158,0.158
		l0.315,0.158v0.316v0.158l0.157,0.316h0.157l0.159,0.158v0.159v0.157v0.316l0.157,0.158v0.158l0.475,0.316h0.314l0.159,0.157v0.159
		v0.158l0.159,0.158l0.156,0.158v0.157h0.158v0.316v0.158v0.158l-0.158,0.158v0.316l0.158,0.316l0.158,0.158l0.156,0.474v0.158
		v0.158h0.159l0.159,0.158h0.158v0.157v0.158v0.316l-0.317,0.316l-0.159,0.158h-0.156v0.157v0.158v0.158l0.156,0.316l0.159,0.315
		v0.633v0.315h-0.159h-0.156v-0.158l-0.316,0.474v0.158v0.158l0.158,0.315l0.314,0.633v0.157l0.159,0.158V232l0.632,0.633
		l0.315,0.315h0.316h0.631h0.158h0.158h0.157v0.157v0.158h0.159h0.157l0.158,0.158v0.159v0.315l-0.158,0.157v0.157l-0.157,0.159
		h-0.159v0.157h-0.157v0.159v0.157l0.157,0.158l1.105,0.79h0.159l0.157,0.157v0.316l-0.157,0.316v0.315h0.157h0.157l0.158,0.157
		l0.315,0.158h0.159v0.159h0.158v0.316v0.315h0.157l-0.157,0.158l0.157,0.159v0.157h0.157v0.159h-0.157v0.157v0.158l-0.157,0.316
		l-0.158,0.316l-0.315,0.789l0.156,0.158v0.158h0.317l0.157,0.157l0.475,0.474l0.158,0.316l0.315,0.158l0.158-0.158h0.156h0.317
		l0.157,0.315v0.158v0.157v0.318v0.315v0.157h0.157l0.159,0.158v0.158v0.158v0.474l0.157,0.79l0.157,0.158v0.157l0.317,0.159h0.156
		h0.159l0.158-0.316v-0.158h0.157l0.157-0.157l0.159-0.158h0.156h0.475v0.158h0.158l-0.158,0.315v0.157v0.316l-0.157,0.159
		l-0.157,0.158v0.315l0.157,0.157v0.159v0.157l0.157,0.159l-0.157,0.315l-0.157,0.316v0.158v0.158v0.158l0.157,0.315l0.157,0.159
		l0.316,0.157l0.158,0.159v0.157v0.158l-0.158,0.158v0.159l0.315,0.474l0.158,0.157v0.158v0.159l-0.632,0.631l-0.473,0.157
		l-0.316-0.157v0.157h-0.159v0.158v0.316l0.159,0.474l0.156,0.158l0.317,0.159l0.315,0.315l0.316,0.159l0.157,0.474v0.316
		l-0.157,0.157l-0.316,0.158h-0.158l-0.157,0.158v0.157v0.159v0.157l-0.157,0.316h-0.16v0.158v0.474l0.16,0.158h0.157v0.158v0.473
		v0.317v0.157l0.157,0.158v0.157v0.157l-0.157,0.633l-0.157,0.158h-0.16l-0.156,0.157l-0.316,0.157v0.159v0.159v0.314l-0.157,0.314
		v0.159l-0.474,0.316v0.157l-0.159,0.158l-0.158,0.157v0.159h0.158l0.159,0.316v0.157v0.157l-0.159,0.158v0.158l-0.158,0.316v0.158
		v0.157l-0.157,0.474l-0.157,0.159l-0.159,0.156h-0.157h-0.157h-0.159l-0.314,0.475h-0.158l-0.315,0.632v0.315v0.317v0.156v0.159
		v0.157l0.157,0.158v0.158v0.158l-0.157,0.157h-0.158h-0.159l-0.473,0.159l-0.317,0.314l-0.156,0.157v0.159v0.157l0.156,0.316
		l-0.156,0.474l-0.159,0.158H432.2v0.158l0.317,0.158l0.156,0.157l0.317,0.157v0.158l0.157,0.158v0.158v0.316l-0.157,0.157
		l0.157,0.316v0.316h0.157v0.157v0.158l0.158,0.316l0.159,0.474v0.157v0.316h-0.159l-0.473,0.315l-0.158,0.316l-0.315,0.315v0.156
		l-0.159,0.159H432.2h-0.157v0.158h-0.157v0.158v0.157l0.157,0.475v0.158v0.315v0.157l-0.157,0.158v0.317l-0.159,0.157l0.159,0.158
		l0.473,0.474l0.159,0.159v0.156h0.156l0.159,0.158h0.158l0.157,0.158h0.157h0.158v0.156h0.159v0.158v0.159v0.159v0.156v0.632v0.158
		l0.158,0.159v0.156l-0.158,0.158l-0.159,0.316v0.316h-0.158v0.314l0.158,0.633l0.159,0.315l0.158,0.158l0.157,0.157v0.158v0.159
		l0.158,0.315l0.158,0.157l0.156,0.316l-0.156,0.159h-0.158v0.156v0.158v0.157v0.316l-0.158,0.157l-0.157,0.158v0.159l-0.317,0.314
		h-0.158l-0.157,0.158v0.159v0.156h0.157l0.317,0.317h0.158h0.157v0.158h0.158h0.158v0.156v0.159h-0.158h-0.158l-0.315,0.158h-0.159
		l-0.158,0.157v0.158l-0.157,0.158l-0.157,0.157v0.316v0.158l-0.158,0.158l-0.159,0.157l-0.315,0.317l-0.632,0.314v0.159
		l-0.157,0.157l-0.316,0.79l-0.157,0.315l-0.158,0.79v0.474l-0.157,0.157l-0.316,0.791l-0.158,0.314l-0.474,0.633v0.157h-0.156
		l-0.159,0.157l-0.158,0.317l-0.632,0.314l-0.156,0.158h-0.158l-0.318,0.316l-0.156,0.158l-0.158,0.158l-0.158,0.314v0.318v0.157
		l0.158,0.315l0.158,0.157l0.633,0.476h0.156l0.158,0.314v0.157l-0.158,0.158l0.158,0.159v0.158l0.474,0.157h0.158l0.315,0.473
		l0.789,1.106l-0.474,0.474l-0.472,0.158h-0.633l-1.264-0.158h-0.791h-1.104h-0.157h-0.158l-0.157,0.158l-1.423,0.315l-2.368,0.948
		l-6.632,3.318l-0.475,0.156l-0.632,0.315l-1.896,0.949h-0.157l-1.105,0.63h-0.158l-1.58,0.791l-0.473,0.315l-0.632,0.316h-0.158
		l-0.157,0.158l-0.789,0.474h-0.159v0.157l-0.789,0.476l-0.316,0.155l-0.157,0.159l-0.157,0.159l-0.474,0.314l-0.317,0.315
		l-0.473,0.79l-0.159,0.476h-0.474l-0.473,0.314h-0.316h-0.158h-0.158v-0.157v-0.316l0.474-0.632l0.317-0.316l0.314-0.314
		l0.158-0.159l0.315-0.314l0.159-0.159l0.157-0.159l0.315-0.155l0.632-1.106v-0.158l0.316-0.158l0.157-0.158h0.316l0.316,0.158
		h0.632l0.631-0.315l0.315-0.316v-0.474v-0.159l0.158-0.155l0.316-0.475l0.315-0.158h0.473l0.159,0.158l0.474,0.314l0.632-0.158
		l0.474-0.156l-0.314-0.632h-0.159l-0.474-0.159v-0.158l-0.473-0.631h-0.159l-0.315-0.158l-0.474,0.158l-0.158,0.159l-0.475,0.314
		l-0.946,0.315h-0.316l-0.315,0.159l-0.633,0.157l-0.788,0.158v0.158l-0.79,0.158l-0.633,0.156l-0.632,0.158h-0.315l-0.315-0.158
		l-0.157-0.314l-0.159-0.316l0.316-0.157l0.157,0.157h0.158l0.158-0.316l0.157-0.315l0.159-0.158l0.473-0.474l0.158-0.158
		l0.159-0.473l0.473-0.948l0.157-0.475v-0.314v-0.158v-0.475l0.158-0.316v-0.474v-0.158v-0.315v-0.158v-0.474v-0.159h-0.158
		l-0.157-0.63l-0.316-0.475l-0.315-0.473v-0.158l-0.315-0.317h-0.157h-0.158h-0.159l-0.157,0.158l-0.474,0.317l-0.633,0.157
		l-0.314,0.158l-0.475,0.314v0.159l-0.158,0.158l-0.787,0.947l-0.161,0.315l-0.156,0.316l-0.159,0.157v0.158v0.474l-0.156,0.316
		l-0.632,0.316l-0.632,0.316l-0.158-0.158l-0.315-0.315v-0.159h-0.159v-0.158v-0.314l-0.158-0.158l-0.156-0.159h-0.316l-0.315-0.158
		l-0.316,0.632l-0.158,0.158l-0.157,0.158l-0.157,0.159l-0.317,0.315l-0.158,0.158l-0.157,0.314v0.159l-0.158,0.159l0.158,0.156
		v0.158l0.157,0.315l0.316,0.158h0.159v0.158h0.157v0.158l0.157,0.157v0.158l-0.157,0.157v0.158h-0.157l-0.317,0.474v0.158h-0.158
		l-0.157,0.475v0.157v0.158v0.316l0.157,0.156l0.316,0.474l0.474,0.317h0.158l0.632,0.158l0.158,0.157h0.158h0.632h0.157
		l0.473,0.158v0.315h-0.156v0.158l-0.316,0.474l-0.157,0.632l0.315,0.158h0.158l0.789,0.474l0.158,0.474v0.159v0.474v0.315v0.157
		v0.316l0.158,0.316v0.157l-0.158,0.158v0.156l-0.158,0.633v0.317l0.158,0.632v0.156v0.159h0.158v0.157h0.156l0.159,0.159h0.317
		l0.156-0.159h0.315l0.79-0.316v-0.314v-0.316v-0.789l0.315-0.318l0.474,0.318l0.474,0.314h0.158h0.158h0.789v-0.156h0.474
		l0.316,0.156h-0.316l-1.105,1.105l-0.315,0.316l-0.158,0.159l-0.314,0.157l-0.316,0.158l-0.159,0.158l-0.314,0.314h-0.158v0.159
		l-0.157,0.157l-0.317,0.158l-0.787,0.631l-0.317,0.16l-0.474,0.314l-0.947,0.632v0.159l-0.474,0.157l-0.79,0.632l-0.316,0.158
		v0.157l-1.422,0.948l-1.421,1.263l-0.156,0.158h-0.159l-0.474,0.475l-0.316,0.314l-0.156,0.158v0.158l-0.159,0.159v0.315
		l-1.895,1.421l-0.157,0.158l-1.424,1.263l-0.314,0.316l-0.631,0.63l-0.79,0.95l-0.317,0.315l-0.788,0.474l-0.633,0.475
		l-0.633,0.789v0.158l-0.155,0.315l-1.107,0.158l-0.631,0.159l-0.315,0.155l-0.947,0.476l-0.158,0.157l-0.632,0.475l-0.947,0.631
		l-0.789,0.475l-0.158,0.158l-0.158,0.157l-0.947,0.474l-0.315,0.159l-2.369,1.578l-0.633,0.315l-3,1.896l-1.263,0.632l-0.947,0.475
		l-1.105,0.473l-1.738,0.948l-0.631,0.314l-0.79,0.318l-0.315,0.157l-0.476,0.315l-0.788,0.315l-3.633,2.055l-0.789,0.314
		l-0.159,0.159l-0.472,0.314v0.159l-0.791,0.474l-1.105,0.791l-0.474,0.472l-0.158,0.158l-0.474,0.159l-0.947,0.79l0.157,0.314
		l-0.315,0.159v-0.159l-0.157-0.157l0.157-0.316l0.158-0.158l0.947-0.947l0.158-0.158l0.789-0.474l0.949-0.788l0.156-0.159
		l0.158-0.159l0.475-0.158h0.158l0.789-0.474l0.157-0.156v-0.317l2.21-1.263l1.265-0.475l1.737-1.106h0.474l0.632-0.472l0.789-0.158
		v-0.317v-0.315v-0.632l0.158-0.315l-0.316-0.158l-0.314-0.156l-0.157,0.156l-0.159,0.158h-0.158h-0.315h-0.315h-0.157h-0.318v0.157
		h-0.157l-0.157,0.158l-0.314,0.317l-0.633,0.314h-0.316l-1.265,0.475h-0.156l-1.265,0.631l-0.314,0.316l-0.632,0.159h-0.316
		l-0.157-0.476v-0.157l0.314-0.157l0.316-0.316v-0.316l-0.474-0.631l0.633-0.789h-0.159l0.632-0.791v-0.314l-0.157-0.159h-0.158
		h-0.157h-0.316h-0.159l-0.157,0.159h-0.157l-0.315,0.156l-0.475,0.316h-0.158l-0.158-0.158l-0.632,0.158l-0.474,0.475v0.314v0.474
		v0.159h-0.474l-0.315,0.158l-1.264,0.473l-0.157,0.157l-0.158,0.159l-2.842,1.579l-0.316,0.157l0.158-0.315v-0.633l-0.158-0.314
		l-0.159-0.157l-0.63-0.158l0.474-0.317v-0.157l-0.159-0.315h-0.158h-0.314l-0.158-0.157h-0.159h-0.474l-0.156-0.158h-0.315
		l-0.159,0.158l-0.158-0.158l-0.158-0.633v-0.314l0.316-0.475v-0.158v-0.158h-0.158l-0.315-0.156h-0.158v-0.159v-0.159v-0.158
		l-0.157-0.156v-0.158h-0.157h-0.159l-0.474,0.158l-0.158,0.156h-0.315l-0.157,0.158h-0.159h-0.157l-0.158,0.159l-0.316,0.159
		l-0.156,0.314l0.156,0.314l0.475,0.318l0.316,0.314v0.158v0.157v0.158l0.157,0.159h0.159l0.156,0.158h0.158v0.157v0.157
		l-0.158,0.315h-0.156v0.159v0.158h0.156v0.158v0.314l0.158,0.157v0.159v0.159v0.157h0.157h0.316h0.159h0.63l0.316,0.157v0.158
		v0.157h0.159l0.472,0.317h0.158v0.158h0.315h0.159v0.157l0.158,0.315l0.158,0.317l0.156,0.315l0.317,0.156h0.156l0.317,0.317
		l0.632,0.314l0.315,0.317l1.105,0.788l0.158,0.317h0.157v0.156v0.159h0.157v0.158v0.159h-0.157l-0.315,0.156l-1.264,0.633
		l-0.475,0.315l-0.156,0.157l-0.791,0.317l-0.158,0.157h-0.314l-0.475,0.157l-0.158,0.159l-0.473,0.315l-0.316,0.315l-0.316,0.158
		l-0.473,0.157l-0.157,0.158l-1.58,0.316l-0.631,0.474l-0.633-0.474h-0.158v0.158l-0.315-0.158l0.159-0.79l-0.159-1.104
		l-0.158-0.159h-0.159h-0.156H342.5l-0.314-0.158h-0.157l-0.316,0.158v0.159l-0.159,0.157l-0.314,0.474v0.632v0.157v0.475v0.474
		l0.157,0.474l-0.157,0.158v0.156l-0.315,0.633l-0.159,0.158l0.159,0.315l0.157,0.317l0.473,0.632v0.157l-0.473,0.947l-0.316,0.158
		l-0.314,0.474l-0.474,0.316l-0.158,0.158h-0.159l-0.314,0.315l-0.474,0.315l-0.159,0.158l-0.314,0.157l-0.317,0.474l-0.158,0.158
		h-0.156l-0.474,0.633l-0.317,0.314h-0.789l-0.631-0.314l-0.476-0.158h-0.157h-0.157h-0.158l-0.474,0.473v0.159v0.317h0.159v0.156
		l-0.159,0.158l-0.159,0.158v0.315l-0.157,0.159v0.314l0.157,0.474v0.158l0.159,0.474v0.317h-0.159l-0.157,0.156l-0.315,0.159v0.158
		l-0.315,0.631v0.159l-0.317,0.157l-0.156,0.157l-0.316,0.475l-0.159,0.316l-0.157,0.157l-0.157,0.315l-0.315,0.633l-0.158,0.314
		l-0.158,0.159h-0.159l-0.155,0.632l-0.16,0.156l-0.158,0.158l-0.314,0.474l-0.157,0.159l-0.316,0.791h-0.159l-0.314,0.63v0.158
		v0.317h-0.158h-0.157h-0.159h-0.316h-0.157h-0.158h-0.156v-0.159v-0.158v-0.158v-0.157h-0.158l-0.159-0.158v-0.158l-0.158-0.156
		v-0.16v-0.157h-0.157v-0.158l-0.158-0.315h-0.474v-0.159h-0.158h-0.159l-0.314,0.159h-0.158h-0.156h-0.159v0.158h-0.159
		l-0.314,0.157h-0.315v0.158l-0.316,0.157l-0.316,0.16l-0.315,0.314l-0.157-0.158v0.158l-0.474,0.315v0.158l-0.474,0.791v0.156v0.79
		v0.157l0.157,0.159v0.157v0.159h0.157l0.159,0.315l0.159,0.158v0.156l0.156,0.317h0.158l0.315,0.315l0.157,0.159h0.158l0.632,0.314
		l0.158,0.159h0.158h0.156h0.159l0.633,0.157l0.788,0.315h0.158v0.158l-0.158,0.475h-0.156h-0.159l-0.158,0.473v0.159l-0.159,0.157
		v0.158v0.158l-0.155,0.157l-0.159,0.474v0.158l-0.158,0.158v0.158v0.157l-0.156,0.157v0.159v0.159l0.156,0.157l-0.156,0.157v0.157
		l-0.318,0.158l-0.314,0.317l-0.158,0.315l-0.314,1.262l-0.159,0.318l-0.158,0.473l-0.158,0.947l-0.157,0.632l-0.315,0.317
		l-0.158,0.947l0.158,0.314l-0.158,0.475l-0.156,0.316l-0.633,1.736v0.316l-0.158,0.157l-0.158,0.317l-0.315,0.156l-0.316,0.159
		h-0.631l-0.949,0.473l-0.788,0.791h-0.791l-0.314-0.316l-0.158-0.157h0.315h0.315l0.159-0.317l0.156-0.158h0.317l0.314-0.156
		l-0.158-0.474v-0.158l0.476-0.474v-0.475v-0.158l-0.476-0.315l-0.474,0.157l-0.156,0.316l-0.475,0.632l-1.105,0.631l-0.314,0.317
		l-0.791,0.789h-0.474h-0.316l-0.157,0.158v0.474v0.474l0.157,0.316l0.157,0.159h0.948h0.476h0.314l0.315,0.315l0.633,0.158
		l0.788-0.158l0.317-0.159l0.156-0.156l0.158-0.159l0.317-0.158l0.632-0.158l0.315-0.156l0.158-0.159h0.947v0.159l-0.316,1.894
		l-0.316,2.054v0.948l-0.314,0.158v0.157v0.315l-0.158,0.159l-0.474-0.159l-0.158-0.158l-0.315,0.158l-0.159,0.159v0.632
		l0.633,0.474h-0.158l-0.159,0.157v0.158v0.632l0.317,0.158v0.157v0.158v0.791l-0.158,0.157l-0.159-0.157h-0.156h-0.317h-0.947
		h-0.158l-0.473,0.157l-0.158,0.314l0.158,0.316l0.158,0.475l-0.158,0.474l-0.158,0.158v0.315l0.474,1.105l0.157,0.158l-0.314,0.315
		l-0.158,0.159v0.473v0.158v0.157h-0.158v0.317l-0.158,0.473l0.316,0.633h0.158h0.314l0.947,0.789l0.791,1.421l0.158,0.158h0.314
		v0.633l0.159,0.947l0.632,2.685v0.948l0.157,0.316l0.157,0.473l0.159,0.157l0.159,0.159v0.158l0.314,0.631v0.317l-0.158,0.473
		v0.314l-0.156,0.161l-0.159,0.314l0.159,0.475v0.156v0.159v0.316l-0.159,0.314h-0.316v0.475l0.157,0.158l0.475,0.158h0.158v-0.158
		l0.158,0.158v0.474l-0.158,0.474v0.157l0.473,0.157h0.159l0.159-0.157v-0.157l0.314,0.157l0.157,0.157l0.315,0.475l-0.157,0.475
		l-0.474,0.632v0.788v0.317h0.158l0.315-0.158l0.157-0.159v-0.314l0.316-0.159l0.474-0.157h0.158l0.158,0.157l0.156,0.159
		l-0.156,0.314v0.317l-0.316,0.157l-0.157,0.316l-0.157,0.157h0.157h0.157v0.633v0.157v0.79h0.158v0.157h0.158h0.156v-0.157
		l0.318-0.158h0.314l0.159,0.633v0.158l-0.474,0.474v0.315l0.629,0.947h0.159l0.158,0.316l-0.158,0.315l-0.159,0.475l-0.155,0.315
		l0.314,0.314v0.318l0.474,0.472v0.316l-0.315,0.159v0.157v0.158h0.159v0.157h0.156v0.157l0.158,0.159l0.315,0.159l0.632,0.157
		h0.158h0.474h0.316h0.315l0.157,0.157h0.159v0.158v0.158l0.158,0.631v0.317l-0.317,0.314h-0.314l-0.315,0.158v0.159l0.157,0.947
		l0.158,0.158h0.314h0.317l0.63-0.317l0.318-0.315l0.155-0.158v-0.314l-0.315-0.791H330.5v-0.314l0.475-0.317h0.473l-0.158,0.791
		l0.158,0.788l0.158,1.105v0.477v0.156v0.474l-0.316,0.158h-0.159l-0.155-0.316l-0.318-0.157l-0.314,0.157h-0.633h-0.314h-0.315
		l-0.476,0.158l-0.157,0.158v0.158h-0.314l-0.633-0.158l-0.158,0.158l0.158,0.474h-0.158h-0.314l-0.317-0.158l-0.474,0.315h-0.158
		l-0.156,0.158h-0.159l-0.159,0.158l-0.473-0.158l-0.474,0.317v0.157l-0.158,0.157v0.157h0.158v0.158v0.316l0.159,0.158v0.315
		l0.157,0.315l-0.157,0.475v0.158l-0.317,0.314l-0.631,0.159l-0.947-0.159h-0.158l-0.158-0.156l-0.315-0.158h-0.159v-0.158v-0.157
		v-0.476l-0.157-0.157h-0.157l-0.159-0.157h-0.157l-0.475,0.157h-0.156h-0.158h-0.158l-0.791-0.315v-0.158l-0.156-0.475
		l-0.158-0.472h-0.315l-0.159-0.159v-0.158v-0.158l-0.315-0.157l-0.157,0.157l-0.633-0.157v-0.315v-0.316h-0.473l-0.318-0.632
		l-0.156-0.156l-0.158-0.161l-0.315-0.315v-0.156l-0.315-0.158h-0.158v-0.159h-0.159v-0.158v-0.157l-0.157-0.158h-0.315h-0.156
		h-0.159v-0.158h-0.632h-0.158l-0.315-0.156l-0.159-0.159l-0.314,0.159h-0.158h-0.158h-0.157l-0.79-0.159h-0.157v-0.158
		l-0.159-0.159h-0.157h-0.159l-0.156,0.159l-0.158-0.159h-0.158v-0.155v-0.159v-0.158l-0.157-0.156h-0.159l-0.157,0.156h-0.316
		h-0.158h-0.156v0.158h-0.159h-0.473h-0.159h-0.158h-0.156l-0.159-0.158l-0.314-0.156l-0.317-0.159l-0.473,0.159v0.156h-0.315
		l-0.632,0.158l-0.317-0.158l-0.158-0.156l-0.473,0.314l-0.157,0.159l-0.157-0.159l-0.161-0.158v-0.156l-0.157-0.159l-0.789,0.159
		h-0.158l-0.315-0.159h-0.157l-0.158,0.315v0.317l-0.158,0.314l-0.474-0.159h-0.474v-0.155l-0.159-0.159l-0.157-0.474v-0.158h-0.157
		v0.158v0.159l-0.159,0.156h-0.156h-0.158l-0.159-0.315l-0.632,0.159h-0.157v0.156l-0.474,0.317h-0.157v-0.159l-0.159-0.158
		l-0.157-0.156h-0.158l-0.157-0.159h-0.157l-0.158-0.158l-0.317,0.317l-0.157,0.314h-0.158v-0.158l-0.156-0.156l-0.477-0.475h-0.314
		h-0.158l-0.156,0.157h-0.318l-0.473-0.315v-0.158l-0.314-0.157l-0.159-0.157v-0.159l0.159-0.159h0.156v-0.157v-0.157v-0.158h-0.156
		h-0.159h-0.315h-0.316l-0.158,0.158v0.157h-0.157l-0.158-0.157l-0.158-0.158h-0.157l-0.316-0.633l-0.157-0.472v-0.159h0.157v-0.159
		v-0.157h-0.157h-0.315l-0.158,0.476l-0.79-0.159h-0.317v-0.159l-0.157-0.314l-0.314-0.315v-0.159h-0.316h-0.157l-0.79-0.631v-0.158
		v-0.315l-0.317-0.158l-0.474-0.159l-0.314,0.159h-0.159v0.158h-0.474h-0.157l-0.157-0.317h-0.318h-0.157h-0.157v0.159v-0.159
		h-0.315v-0.314h-0.157h-0.475l-0.158,0.158v-0.158h-0.474l-0.157-0.317v-0.156l-0.158-0.317h-0.316l-0.475,0.158h-0.156h-0.317
		l-0.156,0.315h-0.158l-0.474,0.159h-0.474h-0.316v-0.159v-0.156v-0.317v-0.156h-0.157l-0.158-0.158h-0.317l-0.314-0.317
		l-0.157-0.157l0.157-0.158l-0.157-0.158l-0.316-0.315h-0.159h-0.157h-0.158l-0.314-0.158v-0.157v-0.316v-0.157v-0.159h-0.316
		h-0.316l-0.473-0.157l-0.316-0.158l-0.158-0.633v-0.156v-0.158l-0.316-0.316h-0.156h-0.159h-0.317l-0.156,0.157l-0.158,0.159
		h-0.158h-0.156l-0.158-0.159h-0.318h-0.156l-0.158,0.159h-0.157h-0.157l-0.317,0.158l-0.158-0.158h-0.157l-0.158-0.159
		l-0.157-0.314h-0.158l-0.158-0.315h-0.157l-0.159,0.158h-0.157l-0.157,0.157l-0.317-0.157v-0.158v-0.158l-0.157-0.316h-0.158
		h-0.158h-0.473h-0.159h-0.158h-0.472l-0.316-0.158v-0.158l-0.159-0.156h-0.157h-0.157v-0.158h-0.159h-0.158l-0.156,0.158
		l-0.158,0.314l-0.315,0.158h-0.632l-0.159-0.158v-0.314h-0.157l-0.157-0.158v-0.16l-0.475-0.314v-0.158v-0.158l0.315-0.157
		l0.159-0.632l0.157-0.316v-0.316l-0.475-0.79l-0.157-0.315l-0.314-0.473h-0.159v-0.157h-0.158h-0.158h-0.157l-0.473-0.161
		l-0.318-0.156l-0.157-0.158v-0.315l0.157-0.316v-0.316v-0.157l-0.314-1.737l-0.791-1.264l-0.156-1.264v-1.104l-0.949-0.79
		l-0.157-1.422l-0.632-0.946l-0.157-0.95l-0.159-0.315l-0.157-0.158l-0.474-0.314h-0.789l-0.314-0.475l0.157-0.473v-0.475v-0.316
		l-0.475-0.315l-0.631-0.157h-0.318l-0.314-0.159l-0.315-0.474l-0.157-0.474l0.157-0.316l0.315-0.157l0.158-0.158l-0.158-0.157
		h-0.157h-0.158l-0.474-0.476v-0.314l-0.316-0.476h-0.157l-0.316,0.318l-0.316-0.158l-0.157-0.317v-0.157v-0.158v-0.158v-0.475
		l-0.158-0.473v-0.158l0.315-0.316h0.159l0.157-0.473v-0.158l-0.157-0.159l-0.159-0.315l0.159-0.315l0.157-0.315v-0.316
		l-0.157-0.316l-0.159-0.157l0.159-0.158l0.157-0.158l0.159-0.631v-0.316l-0.159-0.789l-0.316-0.316l-0.157-0.316l0.157-0.158
		v-0.156v-0.474l-0.315-0.476v-0.156h-0.157h-0.157v-0.159v0.159l-0.633,0.156h-0.158l-0.158-0.156l-0.156-0.159l0.156-0.474
		l0.158-0.158v-0.158l-0.158-0.315h-0.156l-0.158-0.159l-0.316,0.159h-0.316l-0.157-0.159l-0.157-0.158h-0.159v-0.156l0.159-0.317
		h0.314l0.158-0.156l0.314-0.158v-0.159v-0.314v-0.159v-0.158l0.16-0.157v-0.158l0.158-0.315l0.156-0.157l0.158-1.106v-0.156v-0.16
		l-0.314-0.631l0.156-0.475l0.158-0.314l0.158-0.159v-0.158v-0.315v-0.158v-0.158v-0.158l-0.316-0.315h-0.156h-0.158h-0.316h-0.158
		v0.159h-0.315v-0.159l0.157-0.632v-0.474v-0.315v-0.158l0.158-0.315l0.158-0.159V375.1v-0.157v-0.157h-0.158l-0.158-0.158
		l-0.157-0.157l-0.316-0.476v-0.314l-0.316-0.157l-0.158-0.159h-0.158v0.159h-0.158l-0.475,0.157h-0.158v-0.157h0.158v-0.318
		l-0.158-0.157l-0.157-0.157l-0.157-0.158v-0.316h-0.315h-0.316l-0.316,0.158v0.158l-0.474,0.158l-0.474-0.158l-0.315-0.158v-0.158
		l0.158-0.157l0.157-0.159l-0.157-0.314h-0.315v-0.158h-0.475l-0.473,0.158l-0.158,0.157l-0.159-0.157l-0.316-0.316v-0.316
		l-0.158-0.158l-0.157-0.156l-0.791-0.949v-0.157l-0.473-0.631l-0.316,0.155h-0.158l-0.315-0.155l-0.158-0.317v-0.631l-0.316-0.474
		h-0.158l-0.158,0.315h-0.315h-0.315v-0.315v-0.159l-0.159-0.474h-0.316l-0.315-0.158l-0.158-0.157h-0.157v-0.79l0.157-0.314v-0.159
		v-0.158l-0.157-0.315l-0.476-0.158l-0.157-0.314l-0.157-0.476l0.157-0.315l0.157-0.159l0.159-0.314l-0.159-0.159l-0.157-0.314
		h-0.157l-0.316-0.158l-0.316-0.315l-0.315-0.476v-0.472l0.158-0.476v-0.473l-0.948-0.158l-0.63-0.159l-0.316-0.157l-0.158-0.473
		l-0.315-0.633l-0.158-0.475v-0.315v-0.315l-0.157-0.316l-0.316-0.316l-0.474-0.157l-0.315-0.158v-0.314v-0.318l-0.318-0.314v-0.158
		l-0.315-0.315l-0.157-0.632l-0.316-0.158l-0.79-0.316l-0.316-0.158l-0.474-0.314h-0.473h-0.159l-0.157-0.158l-0.159-0.159v-0.157
		l-0.315-0.158l-0.315-0.158h-0.159h-0.158h-0.158l-0.157-0.157v-0.474l-0.157-0.632v-0.158l-0.158-0.158h-0.633h-0.157
		l-0.315-0.316l-0.159-0.157l-0.474-0.631l-0.157-0.159l-0.158-0.314v-0.158l0.158-0.633v-0.316v-0.156l-0.79-1.106l-0.158-0.315
		v-0.158l-0.79-0.79v-0.159l-0.157-0.472l0.157-0.159v-0.157l0.318-0.632l-0.159-0.475v-0.315l-0.316-0.314h-0.158v-0.159h-0.157
		l-0.158-0.474v-0.158h0.315h0.158l0.157-0.159l0.318-0.155v-0.318h-0.159l-0.631-0.314h-0.475l-0.316-0.159l-0.472-0.79
		l-0.316-0.472l0.316-0.476l0.157-0.473v-0.159v-0.158h-0.157l-0.633-0.315h-0.158l-0.158-0.157l-0.474-0.316v-0.316v-0.314
		l0.158-0.316v-0.159v-0.157v0.157h-0.158h-0.159h-0.315l-0.315-0.315l-0.159-0.157v-0.157h-0.315h-0.158l-0.157-0.158v-0.159
		l-0.158-0.315v-0.473h-0.159v-0.159v-0.159v-0.314l0.159-0.158v-0.156v-0.159v-0.317v-0.314l-0.159-0.317l-0.158-0.315
		l-0.474-0.314l-0.158-0.475l0.158-0.316v-0.157v-0.475l-0.315-0.631l-0.157-0.158h-0.159h-0.159h-0.315h-0.158v-0.315l0.158-0.474
		l-0.315-0.158l-0.316-0.317l-0.158-0.315v-0.157l-0.158-0.315v-0.315v-0.159l-0.472-0.158h-0.316h-0.159l-0.158-0.315V327.4v-0.314
		l-0.315-0.633v-0.316v-0.157l0.158-0.316v-0.157v-0.476v-0.314h-0.158v-0.157v-0.316l-0.157-0.316l-0.159-0.475v-0.631v-0.316
		v-0.631l-0.159-0.158v-0.159l-0.157-0.474l-0.315-0.473l-0.315-0.158l-0.476-0.157l-0.631-0.317l-0.316-0.314v-0.158v-0.159v-0.159
		l-0.158-0.156h-0.157h-0.315l-0.159-0.158l-0.158-0.314l-0.158-0.159l0.158-0.159l0.158-0.314v-0.315l-0.316-0.476l-0.315-0.63
		h-0.158h-0.158v-0.317l0.158-0.158v-0.157h-0.158l-0.159-0.157l-0.316-0.316l-0.315-0.158h-0.315h-0.159v-0.158l-0.316-0.157
		l-0.157-0.158h-0.315l-0.316-0.157h-0.158v-0.157v-0.16v-0.314l-0.158-0.316l-0.315-0.158h-0.157h-0.159l-0.158-0.316h-0.159
		l-0.158-0.158h-0.158v-0.156l-0.315-0.158l-0.159-0.158v-0.157l-0.157-0.159h-0.159h-0.315l-0.158-0.157l-0.157-0.159l-0.633-0.314
		h-0.315l-0.159-0.159v-0.314l-0.316-0.632l-0.473-0.318v-0.156v-0.158l-0.157-0.633l-0.316-0.314l-0.159-0.633l-0.158-0.156
		l-0.631-0.316h-0.475h-0.472l-0.476-0.316l-0.157,0.159h-0.158l-0.316-0.159l-0.316-0.474l-0.158-0.316v-0.157l-0.157-0.316
		l-0.473-0.157l-1.106-0.158h-0.316h-0.63l-0.159-0.316v-0.157l0.316-0.632l0.315-0.473v-0.16v-0.631l-0.157-0.475h-0.158
		l-0.157-0.158h-0.159l-0.316,0.158l-0.158,0.159l-0.157,0.157l-0.316,0.316l-0.316-0.158l-0.158-0.158h-0.158l0.158-0.316v-0.474
		l0.158-0.789l-0.158-0.315l-0.158-0.316h-0.315h-0.633h-0.157h-0.315v-0.158l-0.158-0.158v-0.315l-0.158-0.156l-0.158-0.633
		l-0.473-0.633v-0.158v-0.314v-0.158l-0.158-0.159l-0.316-0.158l-0.158-0.157v-0.158v-0.158l-0.158-0.156h-0.157l-0.474,0.156
		h-0.159l-0.158-0.156v-0.477l-0.473-0.314h-0.157l-0.79,0.474l-0.633,0.158h-0.158l-0.158-0.158l-0.158-0.631l-0.314-0.476h-0.476
		l-0.315,0.633v0.158l-0.316,0.156l-0.474-0.156h-0.157h-0.158h-0.474l-0.159,0.156l-0.157,0.159v0.158l-0.315,0.159l-0.159-0.159
		l-0.158-0.158l-0.159-0.315h-0.947l-0.474,0.315l-0.158-0.159l-0.632-0.156l-0.63-0.315l-0.159-0.158h-0.157l-0.316-0.158h-0.315
		l-0.158,0.158h-0.158l-0.316-0.158l-0.157-0.159h-0.157h-0.474l-0.632-0.314h-0.316h-0.157l-0.158,0.157h-0.158l-0.473-0.157
		h-0.475l-0.158,0.157l-0.157,0.157h-0.315v-0.157l-0.159-0.157H183h-0.157h-0.157l-0.315-0.315l-0.159-0.158l-0.316,0.158
		l-0.157,0.157h-0.158l-0.316-0.157l-0.632,0.157l-0.315-0.157l-0.159,0.157v0.315l-0.316,0.157h-0.158h-0.632v-0.157l-0.316-0.157
		h-0.157h-0.157h-0.631L177,295.496l-0.474-0.476v-0.157l-0.632-0.947h-0.157v-0.158l-0.158,0.158l-0.473,0.157h-0.316l-0.316-0.157
		l-0.947-0.315h-0.159l0.159-0.317l-0.159-0.158h-0.157l-0.157,0.158h-0.158l-0.475-0.473h-0.158l-0.472-0.158h-0.159l-0.158,0.315
		h-0.159h-0.315l-0.158,0.315l-0.474,0.475v0.315v0.159l-0.316,0.474l-0.157,0.632v0.474l-0.315,0.632v0.158h-0.159h-0.316
		l-0.315-0.158l-0.633-0.317l-0.789-0.157h-0.316h-0.315l-0.315-0.157h-0.159h-0.474v0.157l-0.158,0.157v0.317l-0.315,0.315
		l-0.316,0.158h-0.159h-0.158h-0.157l-0.158-0.158l-0.157-0.157h-0.159l-0.158,0.157h-0.158l-0.315,0.158h-0.316h-0.474
		l-0.315,0.474h-0.157h-0.475h-0.473l-0.316-0.158v-0.159l-0.316,0.159v0.158l-0.157,0.315l-0.157,0.158v0.474l-0.158,0.317
		l-0.157,0.156v0.316l0.157,0.316l-0.157,0.158l-0.476,0.314l-0.315,0.477l-0.474,0.156l-0.158,0.315v0.158l0.158,0.316
		l-0.158,0.789l-0.158,0.158l-0.315-0.158h-0.158h-0.157v0.158l0.157,0.474l-0.157,0.157h-0.159l-0.158,0.475v0.158v0.158
		l0.158,0.158l-0.631,0.475l-0.474,0.314h-0.159v0.158l0.159,0.947l-0.316,0.316l-0.315,0.631v0.316h-0.157v0.314l-0.159,0.476
		l0.159,0.157v0.315v0.475l0.157,0.158l-0.316,0.474l-0.316,0.316v0.315v0.156v0.159l-0.63,0.317h-0.317l-0.158-0.158l-0.158,0.158
		v0.156v0.158l-0.315,1.106v0.316v0.315v0.158l-0.475,0.156v0.158v0.633v0.158l0.475,0.314h0.157l0.315,0.16l0.158,0.473v0.157
		l-0.315,0.316l-0.472,0.159h-0.159l-0.316-0.317h-0.157h-0.158v0.158l0.158,0.159v0.157v0.157l-0.158,0.315l-0.157-0.158h-0.158
		h-0.158l-0.316,0.158l-0.157,0.317l-0.158,0.157l-0.79-0.315h-0.158h-0.158h-0.157v0.158l-0.159,0.157l0.159,0.473l-0.316,0.317
		v0.158h-0.159l-0.157,0.315l-0.157,0.474l-0.158,0.159l-0.316,0.156v0.316l-0.158,0.156h-0.158l-0.157,0.159h-0.315H148.1
		l-0.158,0.159l-0.159,0.158h-0.158v0.314l-0.473,0.475l-0.316,0.158v0.314v0.317v0.314v0.159v0.315l-0.159,0.158l-0.315,0.474
		v0.315v0.158l-0.315,0.158l-0.317-0.158l-0.315,0.315l-0.315,0.159h-0.316v-0.159v-0.157h-0.316l-0.157-0.158h-0.474l-0.316-0.158
		l-0.63-0.157l-0.316,0.315h-0.158h-0.158l-0.157-0.158l-0.158-0.157h-0.157h-0.159v0.157h-0.157v0.158h-0.159l-0.157-0.158v-0.315
		l-0.157-0.158l-0.158-0.157l-0.157-0.158l-0.316-0.158h-0.159l-0.157-0.157l-0.315-0.158V321.4v-0.159v-0.159l-0.316-0.158
		l-0.158,0.158l-0.158,0.318l-0.158,0.155l-0.158,0.159l-0.632-0.159V321.4l-0.473-0.159h-0.157l-0.633-0.474l-0.157-0.158
		l-0.158-0.315h-0.158l-0.316-0.317l-0.159-0.158h-0.157v0.158l-0.158-0.158l-0.158-0.156v-0.317v-0.159l-0.316-0.314l-0.316-0.474
		l-0.157-0.317h-0.158l-0.157-0.156h-0.475v-0.158l0.158-0.315h-0.158l-0.315-0.317l-0.474-0.314l-0.157-0.158l-0.632,0.158h-0.474
		l-0.159-0.158l-0.157-0.157v-0.158h-0.157h-0.475h-0.158h-0.158l-0.314,0.158l-0.158-0.158l-0.157-0.317h-0.159h-0.157v-0.157
		l-0.632-0.157h-0.316l-0.474-0.157l-0.315-0.317l-0.158-0.315l-0.317-0.315l-0.315-0.317l-0.158-0.314h-0.316l-0.316-0.158v-0.474
		v-0.159l-0.314-0.314v-0.158h-0.158l-0.474-0.158l-0.159-0.157l-0.631-0.316l-0.474-0.159h-0.158l-0.631-0.156h-0.474h-0.475H122.2
		h-0.158v-0.158l-0.157-0.159l-0.473-0.157l-0.79-0.157l-0.316,0.157l-0.158-0.157l-0.474-0.159l-0.473-0.314h-0.159l-0.631-0.317
		l-0.157-0.159l-0.318-0.314v-0.157l-0.315-0.157l-0.315-0.159h-0.157l-0.159-0.316l-0.157-0.157l-0.159-0.315l-0.157-0.159
		l-0.473-0.314h-0.159h-0.158l-0.158-0.159h-0.157h-0.158v-0.157h-0.157l-0.157-0.157l-0.316-0.318l-0.316-0.473v-0.474
		l-0.475-0.632l-0.316-0.158l-0.158-0.157v-0.158v-0.158v-0.315l-0.157-0.158v-0.159h-0.315l-0.158-0.315v-0.158v-0.156h-0.159
		l-0.159-0.158l-0.315-0.158l-0.158-0.158v-0.157h-0.316l-0.632-0.317h-0.474v-0.157h-0.158h-0.158l-0.157,0.157h-0.158h-0.158
		h-0.159l-0.474-0.315l-0.315-0.474h-0.157h-0.159h-0.157l-0.316-0.474v-0.157v-0.158h-0.157v-0.158v-0.158l-1.58-1.106
		l-0.474-0.314l-0.474-0.633l-0.316-0.158l-0.158-0.156l-0.157-0.158l-0.158-0.159l-0.157-0.315l-0.476-0.632l-0.157-0.158v-0.159
		v-0.156l0.157-0.158l-0.157-0.157l-0.157-0.316v-0.159l-0.158-0.314l-0.157-0.633l0.157-0.158v-0.157l-0.157-0.157l-0.159-0.474
		v-0.316l-0.159-0.315l-0.473-0.79l-0.158-0.316l-0.159-0.157l-0.316-0.317l-0.158-0.156v-0.317l-0.157-0.315h-0.158l-0.157-0.316
		V290.6v-0.159v-0.158l-0.157-0.156l-0.159-0.159l-0.316-0.314l-0.157-0.158v-0.316v-0.158h-0.158l-0.157-0.158l-0.159-0.632
		l-0.157-0.158v-0.948l0.157-0.631l-0.157-0.474v-0.948l-0.157-0.157h-0.316v-0.158v-0.158l0.157-0.157l-0.157-0.632v-0.317v-0.156
		h0.157h0.159l0.157-0.159l0.157-0.314v-0.158v-0.317v-0.157l-0.157-0.316v-0.472v-0.476v-0.157l0.157-0.315l0.159-0.475v-0.63
		l-0.474-1.107l-0.159-0.316v-0.158l-0.157-0.474l-0.158-0.474h-0.157l-0.159-0.314v-0.159h-0.157l-0.159,0.159l-0.157-0.159h-0.157
		v-0.317l-0.158-0.314v-0.791l-0.475-0.314l-0.315-0.475l-0.315-0.158l-0.316-0.314v-0.158l-0.159-0.158v-0.316v-0.158v-0.157
		l-0.158-0.316h-0.473l-0.316-0.474l-0.316-0.157l0.159-0.632l0.157-0.474l-0.316-0.316v-0.474h-0.157v-0.315v-0.316v-0.159h0.157
		l-0.157-0.631v-0.475l-0.158-0.473v-0.158l-0.158-0.158l-0.159-0.633v-0.157v-0.316l-0.158-0.314l-0.159-0.474l-0.158-0.475
		l-0.315-0.473l-0.159-0.16h-0.158h-0.157h-0.159l-0.473-0.157l-0.316-0.157h-0.158l-0.158-0.474H91.88v-0.158v-0.316v-0.632v-0.158
		l-0.473-0.473v-0.316l-0.159-0.158h-0.316h-0.473l-0.316-0.158v0.158l-0.159,0.158v-0.158h-0.158l-0.157-0.158v-0.158v-0.157
		l-0.632-0.474l-0.474-0.316l-0.315-0.473v-0.318v-0.157l-0.159-0.157h-0.157l-0.632-0.157h-0.316l-0.159-0.157v-0.159v-0.316
		l-0.158-0.157h-0.157h-0.315l-0.157-0.158v-0.314l-0.317-0.318v0.158h-0.158l-0.157,0.16h-0.158l-0.157-0.16v-0.158l0.157-0.157
		l-0.157-0.157h-0.159h-0.159h-0.315h-0.315l-0.157,0.157l-0.159-0.157l-0.316-0.315l-0.157-0.159l-0.157-0.159l-0.158-0.158H82.72
		h-0.158v0.158h-0.315l-0.158-0.315v-0.157h-0.157l-0.157-0.158l-0.476-0.158l-0.157-0.159l-0.158-0.156h-0.157l-0.159-0.158h-0.316
		l-0.315-0.158h-0.158v-0.157v-0.476v-0.157l-0.158-0.473v-0.16l-0.316-0.315l-0.474-0.157l-0.474-0.474h-0.157v-0.157l-0.316-0.159
		l-0.158-0.158l-0.157-0.157H77.51l-0.317-0.316l-0.158-0.159v-0.157v-0.158l-0.157-0.157l-0.158-0.157l-0.79-0.791h-0.158h-0.158
		l-0.316-0.157l-0.474-0.633v-0.315l-0.157-0.157v-0.159l-0.158-0.157l0.158-0.159v-0.158l-0.158-0.632l-0.157-0.316h-0.159v-0.315
		l-0.157-0.316l-0.631-0.632H72.93l-0.158-0.633l-0.474-0.157l-0.316-0.158l-1.105-0.474l-0.158-0.159v-0.157v-0.158l-0.79-0.632
		h-0.631l-0.158-0.158l-0.157-0.472v-0.159v-0.159l-0.159-0.315h-0.157l-0.159-0.157l-0.631-0.948l-0.158-0.315l-0.315-0.316
		l-0.474-0.631l-0.315-0.791l-0.158-0.157h-0.158h-0.474h-0.159l-0.158-0.633l-0.158-0.158l-0.158-0.158H64.56l-0.158-0.157
		l-0.158-0.79v-0.475l-0.158-0.316l-0.474-0.157l-0.79-0.79l-0.157-0.158h-0.157l-0.475-0.157l-1.737-0.159l-0.474-0.631
		l-0.159-0.158v-0.157h-0.158l-0.632-0.159l-0.315-0.158l-0.474-0.315l-0.474-0.632l-0.158-0.158l-0.79-0.315l-0.158-0.315
		l-0.158-0.159l-0.158-0.789l-0.316-0.475l-0.158-0.632v-0.316L55.4,229l-0.632-0.632l-0.158-0.789l-0.158-0.316l-0.158-0.316
		l-0.158-0.632l-0.157-0.316l-0.632-1.105v-0.158l-0.158-0.316l-0.158-0.631l-0.158-0.316l-0.158-0.157l-0.315-0.316l-0.158-0.158
		l-0.158-0.474v-0.157h-0.158l-0.315-0.316l-0.159-0.158l-0.474-0.316h-0.316l-0.158-0.158l-0.316-0.158l-0.158-0.158l-0.474,0.158
		l-0.157,0.158v0.158h-0.158h-0.158v0.158l-0.158-0.158l-0.632-0.474v-0.158l-0.315-0.316l-0.159-0.315v-0.158l-0.157-0.158v-0.158
		l-0.158-0.158h-0.158v-0.158l-0.157-0.159h-0.316v-0.157h-0.158h-0.158v0.157h-0.158l-0.158-0.157v-0.159l-0.158-0.157
		l-0.157-0.158h-0.316v-0.159v-0.157l0.158-0.159v-0.158l-0.158-0.158h-0.316l-0.158-0.158l-0.159-0.158v-0.158v-0.158H44.82v-0.159
		v-0.157l0.157-0.158v-0.158v-0.158l-0.157-0.158l-0.159-0.159h-0.158v-0.157l0.158-0.158l0.159-0.158h0.157l0.159-0.158h0.158
		h0.158v-0.159h0.158l-0.158-0.157h-0.158h-0.158v-0.159l0.158-0.157v-0.159v-0.158v-0.157l0.316-0.159v-0.157h-0.158h-0.158v-0.158
		l0.158-0.158v-0.158v-0.158h-0.158h-0.158l-0.159-0.158v-0.158v-0.158l0.159-0.158h0.158h0.158l0.158-0.158v-0.158h0.473h0.158
		h0.158h0.158h0.158l0.474,0.158h0.157h1.263l1.579,0.158h0.632h0.947h0.474l0.474,0.158h1.579h0.158h0.158l3.316,0.316h0.158h0.474
		h1.737l2.211,0.158L64.085,213.521z M323.867,384.735l0.157-0.633v-0.158l0.158-0.156h0.157l-0.157-0.791l-0.158-0.157l0.158-0.948
		l0.315-1.104l0.475-0.316v-0.475l0.157-0.157l-0.157-0.315l0.157-0.158l0.316-1.106l0.789-1.263l0.314-0.79l0.477-0.631v-0.158
		l0.156-0.475v-0.157v-0.158l0.158-0.316l0.158-0.158l0.315-0.63v-0.159l-0.158-0.159l0.317-0.789v-0.157h0.314l0.158,0.157
		l0.157-0.157l0.316-0.632l0.159-0.475v-0.473l-0.159-0.158v-0.159l0.316-0.157l0.158-0.158l0.474-0.791l0.158-0.473h0.158h0.157
		l0.314-0.157l0.474-0.474v-0.158v-0.158l0.159-0.157l0.632-0.948v-0.157v-0.159l0.157-0.158v-0.156l0.157-0.159v-0.158
		l-0.157-0.156h-0.157l-0.632,0.156l-0.159-0.156l-0.155-0.159l0.787-0.158l0.633-0.158l0.949-0.315l0.472-0.475l0.79-1.736v-0.159
		v-0.156l0.948-1.423l0.157-0.79h-0.157l-0.157-0.157l0.314-0.632l0.315-0.631l0.158,0.157l0.316-0.157l0.158-0.317l0.473-0.315
		l0.159-0.315l-0.159-0.157l0.159-0.317l0.63-0.63h0.476l0.157-0.317h-0.157v-0.474l0.157-0.632l0.157-0.474l0.159-0.158
		l0.156,0.158l0.158,0.158l0.159,0.315l0.474,0.317l0.473-0.159l0.316-0.317l0.157-0.156v-0.474l-0.157-0.632l-0.157-0.317v-0.157
		l0.157-0.158l0.789-0.473l1.737-0.158l0.949-0.317l0.156-0.157l-0.156-0.315v-0.158h0.473l0.789-0.315v-0.159v-0.157l0.316-0.631
		l1.421-0.949l-0.157-0.157l0.474-0.475l0.473-0.156h0.791l0.156-0.159l0.158-0.474l0.475-0.158l1.578-0.315l0.791-0.315
		l0.474-0.158l0.474-0.475l0.158-0.157v-0.158v-0.159h0.314l0.159,0.159v0.158v0.474v0.158l-0.474,0.474l-0.791,0.315l-1.578,0.947
		l-1.738,0.791l-1.104,0.947l-0.789,0.474l-0.316,0.157l-2.211,1.738l-1.896,1.58l-2.21,2.054l-0.632,0.473l-0.155,0.157v0.158
		h-0.159l-1.105,1.265v0.158l-0.947,0.947l-1.265,1.421l-0.948,1.421l-0.946,1.423l-0.316,0.633l-0.157,0.473v0.157l-0.158,0.158
		l-0.156,0.317l-0.633,0.63v0.158l-0.158,0.159l-0.947,1.421v0.158h-0.158l-0.633,1.104l-0.158,0.318l-0.63,1.105l-0.475,1.105
		l-0.315,0.474l-0.157,0.474l-0.159,0.158l-0.316,0.633v0.157l-0.157,0.631l-1.42,2.843v0.158l-0.317,0.632l-0.788,2.211
		l-0.633,2.211l-0.632,2.37l-0.158,0.314l-0.315,2.056l-0.315,1.736l-0.158,2.211v1.738v2.053l0.315,2.843l0.158,1.264h0.157v0.158
		l0.316,2.053l0.159,0.16l0.473,2.368l0.947,3.158l0.159,0.474l0.155,0.158v0.159l0.317,0.788l0.315,1.265l0.158,0.314l0.158,0.158
		l0.315,1.104l0.948,3.003l0.157,0.789l0.632,2.212l0.316,1.422l0.316,1.421l0.315,1.58v0.158l0.156,0.789l0.158,0.948v0.157v0.791
		l0.315,1.736v0.316l0.159,0.474h-0.159l-0.315-0.316v-0.947l-0.314-1.422v-1.106l-0.158-1.264l-0.474-2.053l-0.632-2.844
		l-0.316-1.104l-0.474-0.791v-0.157l-0.158-0.789l-0.156-0.79l-0.158-0.475l-0.317-0.473l-0.474-1.266l-0.474-0.314l-0.632-0.948
		l0.158-0.473v-0.158l-0.314-0.789v-0.159l-0.318-0.315l-0.473-1.264l0.158-0.633l-0.315-1.264l-0.633-0.314l-0.157-0.474v-0.474
		v-0.159l0.157-0.632v-0.157l-0.157-0.316v-0.315v-0.474l-0.158-0.475l-0.472-0.315l0.156-1.896l-0.156-0.473l-0.159-0.475v-1.579
		v-3.791v-0.475l0.159-0.473l-0.159-0.317v-0.156V389l0.315-1.421l-0.156-0.159h-0.159l0.159-0.946l0.156-0.791l0.158-0.789V384.735
		z"/>
</g>
</svg>
