<?xml version="1.0" encoding="utf-8"?>
<!-- Generator: Adobe Illustrator 16.0.0, SVG Export Plug-In . SVG Version: 6.00 Build 0)  -->
<!DOCTYPE svg PUBLIC "-//W3C//DTD SVG 1.1//EN" "http://www.w3.org/Graphics/SVG/1.1/DTD/svg11.dtd">
<svg version="1.1" id="Layer_1" xmlns="http://www.w3.org/2000/svg" xmlns:xlink="http://www.w3.org/1999/xlink" x="0px" y="0px" viewBox="0 0 512 512" enable-background="new 0 0 512 512" xml:space="preserve">
<g>
	<path fill="#000" d="M457.9,242.2H269.1l0-78.4c0-33.3-12.6-63.8-33.5-86.2c-20.8-22.4-50.6-36.8-83.4-36.7
		c-32.8,0-62.6,14.4-83.4,36.7c-20.9,22.4-33.5,52.9-33.5,86.2v103.9h61v-13.5l-35.7-35.7h35.7v-54.7c0-17.8,6.7-33.4,17.1-44.5
		c10.5-11.1,23.9-17.4,38.8-17.4c14.9,0,28.4,6.3,38.8,17.4c10.4,11.1,17.1,26.7,17.1,44.5v78.4h-26.2c-9.2,0-16.6,7.4-16.6,16.6
		v194.5c0,9.2,7.4,16.6,16.6,16.6h276.1c9.2,0,16.6-7.4,16.6-16.6V258.8C474.5,249.6,467.1,242.2,457.9,242.2"/>
</g>
</svg>
